<svg id="visual" viewBox="0 0 960 540" width="960" height="540" xmlns="http://www.w3.org/2000/svg" xmlns:xlink="http://www.w3.org/1999/xlink" version="1.1"><path d="M0 44L120 12L240 33L360 23L480 12L600 6L720 50L840 44L960 17L960 0L840 0L720 0L600 0L480 0L360 0L240 0L120 0L0 0Z" fill="#00cc8e"></path><path d="M0 66L120 23L240 33L360 39L480 39L600 17L720 71L840 77L960 28L960 15L840 42L720 48L600 4L480 10L360 21L240 31L120 10L0 42Z" fill="#00c58d"></path><path d="M0 98L120 28L240 55L360 125L480 55L600 98L720 82L840 163L960 50L960 26L840 75L720 69L600 15L480 37L360 37L240 31L120 21L0 64Z" fill="#00bf8b"></path><path d="M0 120L120 55L240 98L360 141L480 66L600 104L720 93L840 195L960 93L960 48L840 161L720 80L600 96L480 53L360 123L240 53L120 26L0 96Z" fill="#00b889"></path><path d="M0 152L120 179L240 185L360 217L480 190L600 212L720 104L840 217L960 109L960 91L840 193L720 91L600 102L480 64L360 139L240 96L120 53L0 118Z" fill="#00b187"></path><path d="M0 233L120 330L240 320L360 363L480 228L600 309L720 239L840 352L960 282L960 107L840 215L720 102L600 210L480 188L360 215L240 183L120 177L0 150Z" fill="#00aa85"></path><path d="M0 271L120 395L240 363L360 390L480 233L600 357L720 298L840 390L960 341L960 280L840 350L720 237L600 307L480 226L360 361L240 318L120 328L0 231Z" fill="#00a483"></path><path d="M0 336L120 438L240 433L360 471L480 314L600 384L720 314L840 401L960 384L960 339L840 388L720 296L600 355L480 231L360 388L240 361L120 393L0 269Z" fill="#009d80"></path><path d="M0 476L120 455L240 482L360 482L480 444L600 444L720 482L840 465L960 455L960 382L840 399L720 312L600 382L480 312L360 469L240 431L120 436L0 334Z" fill="#00977d"></path><path d="M0 482L120 509L240 487L360 498L480 498L600 492L720 498L840 471L960 498L960 453L840 463L720 480L600 442L480 442L360 480L240 480L120 453L0 474Z" fill="#00907a"></path><path d="M0 503L120 509L240 487L360 536L480 519L600 492L720 514L840 503L960 519L960 496L840 469L720 496L600 490L480 496L360 496L240 485L120 507L0 480Z" fill="#008977"></path><path d="M0 541L120 541L240 541L360 541L480 541L600 541L720 541L840 541L960 541L960 517L840 501L720 512L600 490L480 517L360 534L240 485L120 507L0 501Z" fill="#038373"></path></svg>